<?xml version="1.0" encoding="iso-8859-1"?>
<!-- Generator: Adobe Illustrator 19.0.0, SVG Export Plug-In . SVG Version: 6.00 Build 0)  -->
<svg version="1.1" id="Layer_1" xmlns="http://www.w3.org/2000/svg" xmlns:xlink="http://www.w3.org/1999/xlink" x="0px" y="0px"
	 viewBox="0 0 512.005 512.005" style="enable-background:new 0 0 512.005 512.005;" xml:space="preserve">
<g>
	<g>
		<g>
			<path d="M452.269,41.964c-2.193,0-4.19,0.819-5.692,2.176c-13.798,4.54-79.812,24.132-190.575,24.132
				c-104.516,0-169.182-17.442-187.733-23.228V22.465c23.578,10.351,80.555,28.74,187.733,28.74
				c145.971,0,198.818-34.116,201.003-35.567c3.908-2.603,4.958-7.868,2.372-11.785s-7.876-5.001-11.81-2.441
				c-0.495,0.333-51.763,32.725-191.565,32.725S64.933,1.746,64.472,1.439c-2.628-1.758-5.999-1.911-8.764-0.427
				c-2.773,1.485-4.506,4.378-4.506,7.526v42.667c0,3.558,2.21,6.741,5.538,7.996c2.782,1.041,68.258,24.934,190.729,26.035v59.836
				c0,4.71,3.823,8.533,8.533,8.533c4.71,0,8.533-3.823,8.533-8.533v-59.81c94.66-0.845,155.29-15.309,179.2-22.34v193.084h-59.733
				c-4.71,0-8.533,3.823-8.533,8.533s3.823,8.533,8.533,8.533h59.733v34.133c0,100.651-79.633,183.04-179.2,187.52v-76.587
				c0-4.71-3.823-8.533-8.533-8.533c-4.71,0-8.533,3.823-8.533,8.533v76.587c-99.567-4.48-179.2-86.869-179.2-187.52v-34.133h59.733
				c4.71,0,8.533-3.823,8.533-8.533s-3.823-8.533-8.533-8.533H68.269V85.339c0-4.71-3.823-8.533-8.533-8.533
				c-4.71,0-8.533,3.823-8.533,8.533v221.867c0,112.922,91.878,204.8,204.8,204.8s204.8-91.878,204.8-204.8V50.497
				C460.803,45.778,456.98,41.964,452.269,41.964z"/>
			<path d="M290.392,230.405c0-4.71-3.814-8.533-8.533-8.533h-0.085c-4.71,0-8.491,3.823-8.491,8.533
				c0,4.71,3.857,8.533,8.576,8.533C286.578,238.939,290.392,235.116,290.392,230.405z"/>
			<path d="M153.859,262.465c-0.64,2.551-0.068,5.257,1.553,7.322c1.613,2.074,4.096,3.285,6.724,3.285
				c1.374,0,3.072,0.631,4.77,1.545c-13.483,19.345-11.93,45.884,4.659,79.07c1.357,2.705,4.036,4.497,7.057,4.702
				c3.055,0.188,5.905-1.203,7.62-3.695c5.879-8.576,11.639-15.104,16.572-19.908c2.33,13.773,11.742,32.896,39.194,55.774
				c1.57,1.314,3.507,1.98,5.461,1.98c1.57,0,3.14-0.427,4.54-1.306c3.123-1.963,4.634-5.717,3.738-9.301
				c-6.554-26.197,3.891-32.836,4.07-32.956c4.215-2.108,5.931-7.236,3.823-11.452s-7.228-5.939-11.452-3.814
				c-0.725,0.358-13.815,7.211-15.454,28.416c-24.303-26.761-16.29-41.651-16.299-41.651c2.159-3.234,1.852-7.518-0.734-10.419
				c-2.586-2.901-6.801-3.686-10.274-1.903c-0.631,0.324-13.338,7.006-28.348,25.071c-9.472-24.107-8.081-41.83,4.13-53.931
				c3.337-3.311,3.371-8.695,0.077-12.049c-0.742-0.76-5.487-5.436-12.023-8.516c9.446-19.294,31.027-19.78,32.017-19.789
				c3.456,0,6.579-2.091,7.893-5.299c1.314-3.208,0.555-6.886-1.911-9.31c-4.531-4.471-8.858-11.494-8.482-13.491
				c2.927-2.927,11.307-0.444,15.113,1.519c2.449,1.289,5.376,1.306,7.859,0.051c2.466-1.263,4.173-3.644,4.565-6.391
				c1.161-8.055,5.444-18.278,8.619-18.278c6.187,0,8.713,10.283,8.73,10.325c0.845,3.934,4.318,6.741,8.337,6.741h17.067
				c6.178,0,19.021,5.487,45.167,31.633c4.514,4.514,9.993,5.888,14.396,6.989c6.69,1.672,8.704,2.176,8.704,12.578
				c0,8.533-2.458,8.533-8.994,8.533c-0.751-0.009-1.946-0.179-3.456-0.35c-9.847-1.143-28.186-3.285-39.27,6.571
				c-3.652,3.26-8.013,9.259-8.013,19.379c0,15.992,13.926,22.69,25.6,24.806v14.78c-11.554-4.241-30.43-12.954-44.996-28.382
				c-3.243-3.43-8.636-3.575-12.058-0.341c-3.43,3.234-3.584,8.636-0.35,12.066c25.941,27.469,62.455,36.224,64,36.582
				c2.534,0.58,5.205-0.009,7.245-1.63c2.039-1.613,3.226-4.079,3.226-6.682v-34.133c0-4.693-3.814-8.499-8.508-8.533
				c-0.171,0-17.092-0.478-17.092-8.533c0-4.113,1.306-5.751,2.295-6.622c5.359-4.779,19.789-3.106,25.941-2.381
				c2.406,0.282,4.292,0.469,5.419,0.469c17.306,0,26.078-8.61,26.078-25.6c0-23.731-13.542-27.119-21.632-29.141
				c-2.842-0.708-5.291-1.323-6.468-2.492c-17.05-17.058-38.972-36.634-57.233-36.634h-10.923
				c-3.558-8.141-10.846-17.067-23.211-17.067c-13.449,0-20.087,13.099-23.159,22.852c-8.183-1.946-18.057-1.758-25.062,5.248
				c-3.251,3.251-4.958,7.45-4.949,12.134c0.026,4.719,1.852,9.412,4.173,13.491C175.849,228.81,159.55,239.698,153.859,262.465z"/>
		</g>
	</g>
</g>
<g>
</g>
<g>
</g>
<g>
</g>
<g>
</g>
<g>
</g>
<g>
</g>
<g>
</g>
<g>
</g>
<g>
</g>
<g>
</g>
<g>
</g>
<g>
</g>
<g>
</g>
<g>
</g>
<g>
</g>
</svg>
